<svg class="icon" viewBox="0 0 1024 1024" xmlns="http://www.w3.org/2000/svg" width="64" height="64"><defs><style/></defs><path d="M892.992 420.63a60.33 60.33 0 00-49.003-41.28l-191.808-27.883-85.76-173.803a60.693 60.693 0 00-108.821 0l-85.76 173.803-191.83 27.861a60.672 60.672 0 00-33.642 103.51l138.816 135.274-32.79 191.04a60.693 60.693 0 0088.065 63.957L512 782.933l171.563 90.198a60.31 60.31 0 0063.893-4.63 60.245 60.245 0 0024.128-59.349l-32.768-191.019 138.816-135.296a60.31 60.31 0 0015.36-62.208z"/></svg>