<svg class="icon" viewBox="0 0 1024 1024" xmlns="http://www.w3.org/2000/svg" width="128" height="128"><defs><style/></defs><path d="M665.344 938.7H145.357a60.058 60.058 0 01-60.007-60.006V358.707a60.058 60.058 0 0160.007-60.006h519.987a60.058 60.058 0 0160.006 60.006v519.987a60.058 60.058 0 01-60.006 60.007zM145.357 358.708v519.987h519.936V358.707zM802.15 832a30.054 30.054 0 01-30.156-29.85V252.006h-549.99a30.003 30.003 0 110-60.006h549.99A60.058 60.058 0 01832 252.006V802.15A30.003 30.003 0 01802.15 832zM908.8 672a30.003 30.003 0 01-30.003-30.003v-496.64H385.075a30.003 30.003 0 010-60.007h493.62a60.058 60.058 0 0160.006 60.007v496.64A30.054 30.054 0 01908.646 672zm-346.778-23.45H248.678a30.003 30.003 0 010-60.006h313.344a30.003 30.003 0 010 60.006z"/></svg>